<?xml version="1.0" encoding="UTF-8" standalone="no"?>
<!DOCTYPE svg PUBLIC "-//W3C//DTD SVG 1.1//EN"
 "http://www.w3.org/Graphics/SVG/1.1/DTD/svg11.dtd">
<!-- Generated by graphviz version 14.1.1 (20251213.1925)
 -->
<!-- Title: InheritanceTree Pages: 1 -->
<svg width="371pt" height="645pt"
 viewBox="0.00 0.00 371.00 645.00" xmlns="http://www.w3.org/2000/svg" xmlns:xlink="http://www.w3.org/1999/xlink">
<g id="graph0" class="graph" transform="scale(1 1) rotate(0) translate(4 640.5)">
<title>InheritanceTree</title>
<polygon fill="white" stroke="none" points="-4,4 -4,-640.5 366.75,-640.5 366.75,4 -4,4"/>
<text xml:space="preserve" text-anchor="middle" x="181.38" y="-7.2" font-family="Times New Roman,serif" font-size="14.00">simple_ci &#45; Inheritance Hierarchy</text>
<!-- APPLICATION -->
<g id="node1" class="node">
<title>APPLICATION</title>
<path fill="none" stroke="black" d="M106.75,-60.5C106.75,-60.5 27.75,-60.5 27.75,-60.5 21.75,-60.5 15.75,-54.5 15.75,-48.5 15.75,-48.5 15.75,-36.5 15.75,-36.5 15.75,-30.5 21.75,-24.5 27.75,-24.5 27.75,-24.5 106.75,-24.5 106.75,-24.5 112.75,-24.5 118.75,-30.5 118.75,-36.5 118.75,-36.5 118.75,-48.5 118.75,-48.5 118.75,-54.5 112.75,-60.5 106.75,-60.5"/>
<text xml:space="preserve" text-anchor="middle" x="67.25" y="-37.45" font-family="Times New Roman,serif" font-size="14.00">APPLICATION</text>
</g>
<!-- CI_BUILD_RESULT -->
<g id="node2" class="node">
<title>CI_BUILD_RESULT</title>
<path fill="none" stroke="black" d="M122.5,-132.5C122.5,-132.5 12,-132.5 12,-132.5 6,-132.5 0,-126.5 0,-120.5 0,-120.5 0,-108.5 0,-108.5 0,-102.5 6,-96.5 12,-96.5 12,-96.5 122.5,-96.5 122.5,-96.5 128.5,-96.5 134.5,-102.5 134.5,-108.5 134.5,-108.5 134.5,-120.5 134.5,-120.5 134.5,-126.5 128.5,-132.5 122.5,-132.5"/>
<text xml:space="preserve" text-anchor="middle" x="67.25" y="-109.45" font-family="Times New Roman,serif" font-size="14.00">CI_BUILD_RESULT</text>
</g>
<!-- CI_CONFIG -->
<g id="node3" class="node">
<title>CI_CONFIG</title>
<path fill="none" stroke="black" d="M98.5,-204.5C98.5,-204.5 36,-204.5 36,-204.5 30,-204.5 24,-198.5 24,-192.5 24,-192.5 24,-180.5 24,-180.5 24,-174.5 30,-168.5 36,-168.5 36,-168.5 98.5,-168.5 98.5,-168.5 104.5,-168.5 110.5,-174.5 110.5,-180.5 110.5,-180.5 110.5,-192.5 110.5,-192.5 110.5,-198.5 104.5,-204.5 98.5,-204.5"/>
<text xml:space="preserve" text-anchor="middle" x="67.25" y="-181.45" font-family="Times New Roman,serif" font-size="14.00">CI_CONFIG</text>
</g>
<!-- CI_PROJECT -->
<g id="node4" class="node">
<title>CI_PROJECT</title>
<path fill="none" stroke="black" d="M101.88,-276.5C101.88,-276.5 32.62,-276.5 32.62,-276.5 26.62,-276.5 20.62,-270.5 20.62,-264.5 20.62,-264.5 20.62,-252.5 20.62,-252.5 20.62,-246.5 26.62,-240.5 32.62,-240.5 32.62,-240.5 101.88,-240.5 101.88,-240.5 107.88,-240.5 113.88,-246.5 113.88,-252.5 113.88,-252.5 113.88,-264.5 113.88,-264.5 113.88,-270.5 107.88,-276.5 101.88,-276.5"/>
<text xml:space="preserve" text-anchor="middle" x="67.25" y="-253.45" font-family="Times New Roman,serif" font-size="14.00">CI_PROJECT</text>
</g>
<!-- CI_REPORT -->
<g id="node5" class="node">
<title>CI_REPORT</title>
<path fill="none" stroke="black" d="M98.88,-348.5C98.88,-348.5 35.62,-348.5 35.62,-348.5 29.62,-348.5 23.62,-342.5 23.62,-336.5 23.62,-336.5 23.62,-324.5 23.62,-324.5 23.62,-318.5 29.62,-312.5 35.62,-312.5 35.62,-312.5 98.88,-312.5 98.88,-312.5 104.88,-312.5 110.88,-318.5 110.88,-324.5 110.88,-324.5 110.88,-336.5 110.88,-336.5 110.88,-342.5 104.88,-348.5 98.88,-348.5"/>
<text xml:space="preserve" text-anchor="middle" x="67.25" y="-325.45" font-family="Times New Roman,serif" font-size="14.00">CI_REPORT</text>
</g>
<!-- CI_RUNNER -->
<g id="node6" class="node">
<title>CI_RUNNER</title>
<path fill="none" stroke="black" d="M101.12,-420.5C101.12,-420.5 33.38,-420.5 33.38,-420.5 27.38,-420.5 21.38,-414.5 21.38,-408.5 21.38,-408.5 21.38,-396.5 21.38,-396.5 21.38,-390.5 27.38,-384.5 33.38,-384.5 33.38,-384.5 101.12,-384.5 101.12,-384.5 107.12,-384.5 113.12,-390.5 113.12,-396.5 113.12,-396.5 113.12,-408.5 113.12,-408.5 113.12,-414.5 107.12,-420.5 101.12,-420.5"/>
<text xml:space="preserve" text-anchor="middle" x="67.25" y="-397.45" font-family="Times New Roman,serif" font-size="14.00">CI_RUNNER</text>
</g>
<!-- ANY -->
<g id="node7" class="node">
<title>ANY</title>
<path fill="none" stroke="black" d="M317.62,-420.5C317.62,-420.5 287.62,-420.5 287.62,-420.5 281.62,-420.5 275.62,-414.5 275.62,-408.5 275.62,-408.5 275.62,-396.5 275.62,-396.5 275.62,-390.5 281.62,-384.5 287.62,-384.5 287.62,-384.5 317.62,-384.5 317.62,-384.5 323.62,-384.5 329.62,-390.5 329.62,-396.5 329.62,-396.5 329.62,-408.5 329.62,-408.5 329.62,-414.5 323.62,-420.5 317.62,-420.5"/>
<text xml:space="preserve" text-anchor="middle" x="302.62" y="-397.45" font-family="Times New Roman,serif" font-size="14.00">ANY</text>
</g>
<!-- CI_RUNNER&#45;&gt;ANY -->
<g id="edge1" class="edge">
<title>CI_RUNNER&#45;&gt;ANY</title>
<path fill="none" stroke="black" d="M113.47,-402.5C113.47,-402.5 263.74,-402.5 263.74,-402.5"/>
<polygon fill="none" stroke="black" points="263.74,-406 273.74,-402.5 263.74,-399 263.74,-406"/>
</g>
<!-- CI_WORKFLOW -->
<g id="node8" class="node">
<title>CI_WORKFLOW</title>
<path fill="none" stroke="black" d="M113.88,-492.5C113.88,-492.5 20.62,-492.5 20.62,-492.5 14.62,-492.5 8.62,-486.5 8.62,-480.5 8.62,-480.5 8.62,-468.5 8.62,-468.5 8.62,-462.5 14.62,-456.5 20.62,-456.5 20.62,-456.5 113.88,-456.5 113.88,-456.5 119.88,-456.5 125.88,-462.5 125.88,-468.5 125.88,-468.5 125.88,-480.5 125.88,-480.5 125.88,-486.5 119.88,-492.5 113.88,-492.5"/>
<text xml:space="preserve" text-anchor="middle" x="67.25" y="-469.45" font-family="Times New Roman,serif" font-size="14.00">CI_WORKFLOW</text>
</g>
<!-- LIB_TESTS -->
<g id="node9" class="node">
<title>LIB_TESTS</title>
<path fill="none" stroke="black" d="M97.38,-564.5C97.38,-564.5 37.12,-564.5 37.12,-564.5 31.12,-564.5 25.12,-558.5 25.12,-552.5 25.12,-552.5 25.12,-540.5 25.12,-540.5 25.12,-534.5 31.12,-528.5 37.12,-528.5 37.12,-528.5 97.38,-528.5 97.38,-528.5 103.38,-528.5 109.38,-534.5 109.38,-540.5 109.38,-540.5 109.38,-552.5 109.38,-552.5 109.38,-558.5 103.38,-564.5 97.38,-564.5"/>
<text xml:space="preserve" text-anchor="middle" x="67.25" y="-541.45" font-family="Times New Roman,serif" font-size="14.00">LIB_TESTS</text>
</g>
<!-- TEST_SET_BASE -->
<g id="node10" class="node">
<title>TEST_SET_BASE</title>
<path fill="none" stroke="black" d="M350.75,-564.5C350.75,-564.5 254.5,-564.5 254.5,-564.5 248.5,-564.5 242.5,-558.5 242.5,-552.5 242.5,-552.5 242.5,-540.5 242.5,-540.5 242.5,-534.5 248.5,-528.5 254.5,-528.5 254.5,-528.5 350.75,-528.5 350.75,-528.5 356.75,-528.5 362.75,-534.5 362.75,-540.5 362.75,-540.5 362.75,-552.5 362.75,-552.5 362.75,-558.5 356.75,-564.5 350.75,-564.5"/>
<text xml:space="preserve" text-anchor="middle" x="302.62" y="-541.45" font-family="Times New Roman,serif" font-size="14.00">TEST_SET_BASE</text>
</g>
<!-- LIB_TESTS&#45;&gt;TEST_SET_BASE -->
<g id="edge2" class="edge">
<title>LIB_TESTS&#45;&gt;TEST_SET_BASE</title>
<path fill="none" stroke="black" d="M109.87,-546.5C109.87,-546.5 230.65,-546.5 230.65,-546.5"/>
<polygon fill="none" stroke="black" points="230.65,-550 240.65,-546.5 230.65,-543 230.65,-550"/>
</g>
<!-- TEST_APP -->
<g id="node11" class="node">
<title>TEST_APP</title>
<path fill="none" stroke="black" d="M95.12,-636.5C95.12,-636.5 39.38,-636.5 39.38,-636.5 33.38,-636.5 27.38,-630.5 27.38,-624.5 27.38,-624.5 27.38,-612.5 27.38,-612.5 27.38,-606.5 33.38,-600.5 39.38,-600.5 39.38,-600.5 95.12,-600.5 95.12,-600.5 101.12,-600.5 107.12,-606.5 107.12,-612.5 107.12,-612.5 107.12,-624.5 107.12,-624.5 107.12,-630.5 101.12,-636.5 95.12,-636.5"/>
<text xml:space="preserve" text-anchor="middle" x="67.25" y="-613.45" font-family="Times New Roman,serif" font-size="14.00">TEST_APP</text>
</g>
</g>
</svg>
