<?xml version="1.0" encoding="UTF-8" standalone="no"?>
<!DOCTYPE svg PUBLIC "-//W3C//DTD SVG 1.1//EN"
 "http://www.w3.org/Graphics/SVG/1.1/DTD/svg11.dtd">
<!-- Generated by graphviz version 14.1.1 (20251213.1925)
 -->
<!-- Title: Dependencies Pages: 1 -->
<svg width="328pt" height="429pt"
 viewBox="0.00 0.00 328.00 429.00" xmlns="http://www.w3.org/2000/svg" xmlns:xlink="http://www.w3.org/1999/xlink">
<g id="graph0" class="graph" transform="scale(1 1) rotate(0) translate(4 424.5)">
<title>Dependencies</title>
<polygon fill="white" stroke="none" points="-4,4 -4,-424.5 324,-424.5 324,4 -4,4"/>
<text xml:space="preserve" text-anchor="middle" x="160" y="-7.2" font-family="Times New Roman,serif" font-size="14.00">simple_ci &#45; Dependencies</text>
<!-- simple_ci -->
<g id="node1" class="node">
<title>simple_ci</title>
<polygon fill="lightblue" stroke="black" points="69.25,-240.5 0,-240.5 0,-204.5 69.25,-204.5 69.25,-240.5"/>
<text xml:space="preserve" text-anchor="middle" x="34.62" y="-217.45" font-family="Times New Roman,serif" font-size="14.00">simple_ci</text>
</g>
<!-- simple_datetime -->
<g id="node2" class="node">
<title>simple_datetime</title>
<polygon fill="lightblue" stroke="black" points="320,-420.5 213.25,-420.5 213.25,-384.5 320,-384.5 320,-420.5"/>
<text xml:space="preserve" text-anchor="middle" x="266.62" y="-397.45" font-family="Times New Roman,serif" font-size="14.00">simple_datetime</text>
</g>
<!-- simple_ci&#45;&gt;simple_datetime -->
<g id="edge1" class="edge">
<title>simple_ci&#45;&gt;simple_datetime</title>
<path fill="none" stroke="black" stroke-dasharray="5,2" d="M17,-240.75C17,-286.51 17,-402.5 17,-402.5 17,-402.5 201.25,-402.5 201.25,-402.5"/>
<polygon fill="black" stroke="black" points="201.25,-406 211.25,-402.5 201.25,-399 201.25,-406"/>
</g>
<!-- simple_json -->
<g id="node3" class="node">
<title>simple_json</title>
<polygon fill="lightblue" stroke="black" points="307.62,-348.5 225.62,-348.5 225.62,-312.5 307.62,-312.5 307.62,-348.5"/>
<text xml:space="preserve" text-anchor="middle" x="266.62" y="-325.45" font-family="Times New Roman,serif" font-size="14.00">simple_json</text>
</g>
<!-- simple_ci&#45;&gt;simple_json -->
<g id="edge2" class="edge">
<title>simple_ci&#45;&gt;simple_json</title>
<path fill="none" stroke="black" stroke-dasharray="5,2" d="M35,-240.82C35,-271.63 35,-330.5 35,-330.5 35,-330.5 213.7,-330.5 213.7,-330.5"/>
<polygon fill="black" stroke="black" points="213.7,-334 223.7,-330.5 213.7,-327 213.7,-334"/>
</g>
<!-- simple_process -->
<g id="node4" class="node">
<title>simple_process</title>
<polygon fill="lightblue" stroke="black" points="316.62,-276.5 216.62,-276.5 216.62,-240.5 316.62,-240.5 316.62,-276.5"/>
<text xml:space="preserve" text-anchor="middle" x="266.62" y="-253.45" font-family="Times New Roman,serif" font-size="14.00">simple_process</text>
</g>
<!-- simple_ci&#45;&gt;simple_process -->
<g id="edge3" class="edge">
<title>simple_ci&#45;&gt;simple_process</title>
<path fill="none" stroke="black" stroke-dasharray="5,2" d="M52,-240.92C52,-249.78 52,-258.5 52,-258.5 52,-258.5 204.79,-258.5 204.79,-258.5"/>
<polygon fill="black" stroke="black" points="204.79,-262 214.79,-258.5 204.79,-255 204.79,-262"/>
</g>
<!-- simple_testing -->
<g id="node5" class="node">
<title>simple_testing</title>
<polygon fill="lightblue" stroke="black" points="314.38,-204.5 218.88,-204.5 218.88,-168.5 314.38,-168.5 314.38,-204.5"/>
<text xml:space="preserve" text-anchor="middle" x="266.62" y="-181.45" font-family="Times New Roman,serif" font-size="14.00">simple_testing</text>
</g>
<!-- simple_ci&#45;&gt;simple_testing -->
<g id="edge4" class="edge">
<title>simple_ci&#45;&gt;simple_testing</title>
<path fill="none" stroke="black" stroke-dasharray="5,2" d="M52,-204.08C52,-195.22 52,-186.5 52,-186.5 52,-186.5 206.95,-186.5 206.95,-186.5"/>
<polygon fill="black" stroke="black" points="206.95,-190 216.95,-186.5 206.95,-183 206.95,-190"/>
</g>
<!-- base -->
<g id="node6" class="node">
<title>base</title>
<polygon fill="lightgray" stroke="black" points="293.62,-132.5 239.62,-132.5 239.62,-96.5 293.62,-96.5 293.62,-132.5"/>
<text xml:space="preserve" text-anchor="middle" x="266.62" y="-109.45" font-family="Times New Roman,serif" font-size="14.00">base</text>
</g>
<!-- simple_ci&#45;&gt;base -->
<g id="edge5" class="edge">
<title>simple_ci&#45;&gt;base</title>
<path fill="none" stroke="black" stroke-dasharray="5,2" d="M35,-204.18C35,-173.37 35,-114.5 35,-114.5 35,-114.5 227.63,-114.5 227.63,-114.5"/>
<polygon fill="black" stroke="black" points="227.63,-118 237.63,-114.5 227.63,-111 227.63,-118"/>
</g>
<!-- testing -->
<g id="node7" class="node">
<title>testing</title>
<polygon fill="lightgray" stroke="black" points="293.62,-60.5 239.62,-60.5 239.62,-24.5 293.62,-24.5 293.62,-60.5"/>
<text xml:space="preserve" text-anchor="middle" x="266.62" y="-37.45" font-family="Times New Roman,serif" font-size="14.00">testing</text>
</g>
<!-- simple_ci&#45;&gt;testing -->
<g id="edge6" class="edge">
<title>simple_ci&#45;&gt;testing</title>
<path fill="none" stroke="black" stroke-dasharray="5,2" d="M17,-204.25C17,-158.49 17,-42.5 17,-42.5 17,-42.5 227.92,-42.5 227.92,-42.5"/>
<polygon fill="black" stroke="black" points="227.92,-46 237.92,-42.5 227.92,-39 227.92,-46"/>
</g>
</g>
</svg>
